# xmcd CD database file
#
# Track frame offsets:
#	150
#	9445
#	20331
#	29282
#	40164
#	50951
#	61457
#	74886
#	86311
#	97354
#	105866
#	118666
#	128459
#	137911
#	148897
#	160685
#	169422
#	179405
#	190593
#	203241
#
# Disc length: 2826 seconds
#
# Revision: 0
# Processed by: cddbd v1.5.2PL0 Copyright (c) Steve Scherf et al.
# Submitted via: CDex 1.70beta2
#
DISCID=200b0814
DTITLE=Various Artist - It's Country [CD-1)
DYEAR=1900
DGENRE=Country
TTITLE0=Elvis Presley - Blue Moon Of Kentucky 
TTITLE1=Conway Twitty - Mona Lisa
TTITLE2=Johnny Cash - Honky Tonk Girl
TTITLE3=Dolly Parton - It Wasn't God Who Made Honky Tonk Angels
TTITLE4=George Jones - Tender Years
TTITLE5=Jim Reeves - He'll Have To Go
TTITLE6=Johnny Paycheck - Slide Off Of Your Satin Sheets
TTITLE7=Lynn Anderson - Listen To A Country Song
TTITLE8=Merle Haggard - Silver Wings
TTITLE9=Willie Nelson - Slow Down Old World
TTITLE10=Patsy Cline - I Fall To Pieces
TTITLE11=Faron Young - Country Girl
TTITLE12=George Jones and Margie Singleton - Did I Ever Told You
TTITLE13=Buck Owens   - Excuse Me
TTITLE14=Willie Nelson - I'll Stay Around
TTITLE15=Conway Twitty - She's Mine
TTITLE16=Johnny Cash - Rock Island Line
TTITLE17=Elvis Presley - Mystery Train 
TTITLE18=Johnny Horton - North To Alaska
TTITLE19=Waylon Jennings - Loves Gonna Live Here Again
EXTD=
EXTT0=
EXTT1=
EXTT2=
EXTT3=
EXTT4=
EXTT5=
EXTT6=
EXTT7=
EXTT8=
EXTT9=
EXTT10=
EXTT11=
EXTT12=
EXTT13=
EXTT14=
EXTT15=
EXTT16=
EXTT17=
EXTT18=
EXTT19=
PLAYORDER=
